<?xml version="1.0" encoding="utf-8"?>
<!-- Generator: Adobe Illustrator 16.0.0, SVG Export Plug-In . SVG Version: 6.00 Build 0)  -->
<!DOCTYPE svg PUBLIC "-//W3C//DTD SVG 1.1//EN" "http://www.w3.org/Graphics/SVG/1.1/DTD/svg11.dtd">
<svg version="1.1" xmlns="http://www.w3.org/2000/svg" xmlns:xlink="http://www.w3.org/1999/xlink" x="0px" y="0px" width="960px"
	 height="560px" viewBox="0 0 960 560" enable-background="new 0 0 960 560" xml:space="preserve">
<g id="Layer_1">
	<g id="Primary_Structure">
		<g id="Grey">
			<g>
				<path fill="#5E5E5E" d="M451.84,303.3c-0.31,1.12-0.64,2.24-0.98,3.35c-1.56,5.03-3.44,9.91-5.6,14.64
					c-1.56,3.4-3.29,6.72-5.15,9.95c-0.03,0.05-0.06,0.11-0.09,0.16c-0.01,0.02-0.02,0.04-0.03,0.05c-0.01,0.02-0.03,0.04-0.04,0.07
					c-0.23,0.4-0.46,0.79-0.7,1.19c-0.31,0.52-0.63,1.03-0.95,1.54c2.01-0.68,4.37-0.06,5.82,2.13c0.93,1.41,1.82,2.84,2.71,4.27
					c0.79-1.27,1.57-2.54,2.32-3.83c0.01-0.02,0.02-0.04,0.03-0.06c0.02-0.02,0.03-0.04,0.03-0.06c0.03-0.05,0.06-0.1,0.1-0.16
					c0.71-1.23,1.41-2.48,2.08-3.74c4.54,7.42,9.98,14.35,16.28,20.65c6.27,6.27,13.15,11.69,20.53,16.21
					c17.11,10.51,36.81,16.15,57.39,16.22h0.36c18.92,0,37.1-4.72,53.23-13.59c0.06-0.03,0.1-0.06,0.16-0.09l-5.11-9.29
					c-0.05,0.04-0.1,0.06-0.15,0.09c-14.29,7.86-30.69,12.34-48.12,12.34c-0.05,0-0.1,0-0.15,0h-0.22
					c-19-0.07-36.77-5.46-51.9-14.75c-14.22-8.72-26.09-20.89-34.46-35.34c-0.01-0.02-0.02-0.05-0.03-0.07
					c-0.04-0.05-0.06-0.1-0.09-0.15c-0.03-0.05-0.06-0.1-0.09-0.15c-0.72-1.26-1.41-2.54-2.09-3.83c0.86-2.08,1.65-4.18,2.4-6.29
					C456.55,311.1,454.01,307.29,451.84,303.3z"/>
				<path fill="#5E5E5E" d="M670.07,329.72c-0.02-0.02-0.03-0.04-0.05-0.06c-0.03-0.06-0.06-0.13-0.1-0.19
					c-0.03-0.05-0.06-0.1-0.1-0.15c-8.4-14.65-13.21-31.61-13.21-49.66c0-0.75,0.02-1.51,0.03-2.26c0-0.06,0.01-0.12,0.01-0.18
					h-0.02c0.01-0.67,0.02-1.35,0.02-2.03c0-19.76-5.15-38.72-14.79-55.37c-0.01-0.02-0.03-0.05-0.04-0.07
					c-0.02-0.05-0.05-0.1-0.08-0.15c-0.03-0.05-0.06-0.1-0.09-0.15c-4.75-8.13-10.58-15.71-17.41-22.54
					c-6.47-6.47-13.61-12.04-21.26-16.66c-17.04-10.28-36.61-15.77-57.02-15.77h-0.15c-0.07,0-0.15,0-0.22,0
					c-18.8,0.06-36.88,4.78-52.91,13.6c-0.06,0.03-0.1,0.06-0.16,0.08c-9.01,4.98-17.37,11.25-24.85,18.73
					c-5.21,5.21-9.82,10.84-13.83,16.82c-1.29,1.92-2.52,3.88-3.68,5.88c-0.03,0.06-0.06,0.11-0.08,0.16
					c-0.02,0.02-0.03,0.04-0.04,0.06c-0.02,0.02-0.02,0.04-0.03,0.06c-0.97,1.67-1.89,3.37-2.77,5.09
					c-2.36,4.63-4.39,9.41-6.06,14.33c-3.61,10.58-5.63,21.76-5.89,33.22c-0.01,0.05-0.01,0.09-0.01,0.14l-0.11,0
					c0,0.06,0,0.12,0,0.18c-0.23,11.72-2.49,22.95-6.43,33.36c-1.86,4.91-4.09,9.63-6.67,14.13c-0.07,0.13-0.14,0.25-0.21,0.38
					c-0.03,0.05-0.06,0.1-0.09,0.15c-0.02,0.01-0.02,0.03-0.04,0.06c-0.01,0.02-0.03,0.04-0.04,0.06
					c-9.14,15.75-22.45,28.79-38.4,37.6c-0.05,0.03-0.11,0.06-0.16,0.09c-14.29,7.86-30.69,12.34-48.13,12.34h-0.15
					c-0.06,0-0.13-0.01-0.21-0.01c-19-0.07-36.78-5.45-51.9-14.74c-14.21-8.73-26.09-20.9-34.46-35.34
					c-0.01-0.02-0.03-0.05-0.04-0.07c-0.03-0.05-0.06-0.09-0.09-0.14c-0.03-0.05-0.06-0.1-0.08-0.16
					c-8.42-14.66-13.23-31.63-13.23-49.71c0-0.75,0.02-1.51,0.03-2.27c0-0.05,0.01-0.12,0.01-0.17c0.41-17.29,5.23-33.5,13.37-47.56
					c0.01-0.02,0.02-0.04,0.04-0.06c0.01-0.02,0.02-0.04,0.03-0.06c0.03-0.05,0.06-0.1,0.09-0.16c9.13-15.67,22.4-28.64,38.28-37.43
					c0.06-0.03,0.11-0.06,0.17-0.09c14.2-7.82,30.49-12.3,47.8-12.36c0.07,0,0.14,0,0.21,0H335c18.84,0,36.46,5.22,51.53,14.3
					c14.41,8.69,26.48,20.89,34.98,35.43c0.03,0.05,0.06,0.1,0.09,0.15c0.04,0.05,0.06,0.1,0.09,0.15c0.01,0.02,0.03,0.04,0.04,0.07
					c0.79,1.36,1.55,2.73,2.26,4.13c3.22,3.97,5.25,8.68,6.35,13.73c1.51-4.77,3.3-9.42,5.37-13.91c0.54-1.18,1.11-2.34,1.69-3.5
					c-3.27-0.22-4.72-3.12-4.38-5.74c-1.48-0.67-2.36-2.04-2.63-3.54c-0.02-0.03-0.04-0.06-0.06-0.09
					c-0.25,0.46-0.52,0.91-0.76,1.37c-4.54-7.42-9.98-14.35-16.29-20.66c-6.47-6.47-13.61-12.05-21.26-16.66
					c-17.04-10.28-36.6-15.76-57.03-15.76h-0.15c-0.06,0-0.13,0-0.21,0c-18.8,0.06-36.87,4.78-52.91,13.6
					c-0.05,0.03-0.11,0.06-0.16,0.08c-9.01,4.98-17.38,11.25-24.85,18.73c-6.88,6.88-12.73,14.51-17.5,22.7
					c-0.03,0.05-0.07,0.1-0.09,0.15c-0.01,0.02-0.02,0.04-0.03,0.06c-0.02,0.02-0.03,0.04-0.04,0.07
					c-9.19,15.88-14.29,33.87-14.72,52.64c0,0.06-0.01,0.12-0.01,0.18c-0.02,0.82-0.03,1.65-0.03,2.48
					c0,19.61,5.07,38.44,14.58,55.01c0.03,0.05,0.06,0.1,0.09,0.15c0.03,0.05,0.06,0.1,0.09,0.15c0.01,0.02,0.02,0.04,0.04,0.06
					c4.79,8.27,10.68,15.97,17.62,22.91c6.27,6.27,13.15,11.69,20.52,16.21c17.12,10.51,36.82,16.15,57.4,16.22H335
					c18.92,0,37.1-4.72,53.23-13.58c0.05-0.03,0.11-0.06,0.16-0.08c9.02-4.99,17.4-11.26,24.89-18.76
					c5.21-5.2,9.83-10.84,13.83-16.82c1.32-1.97,2.57-3.98,3.76-6.03c0.01-0.02,0.02-0.04,0.04-0.07c0.01-0.02,0.02-0.04,0.03-0.06
					c0.03-0.05,0.06-0.1,0.08-0.15c0.93-1.63,1.83-3.27,2.68-4.95c2.36-4.62,4.39-9.41,6.07-14.33c3.66-10.71,5.68-22.05,5.9-33.67
					c0.01-0.04,0.01-0.09,0.01-0.14h0.12v-0.18c0.28-11.56,2.52-22.64,6.42-32.91c1.86-4.9,4.09-9.63,6.66-14.13
					c0.1-0.17,0.2-0.35,0.3-0.52c0.01-0.02,0.02-0.05,0.03-0.07c0.01-0.02,0.02-0.04,0.04-0.05c0.03-0.05,0.06-0.11,0.09-0.16
					c9.14-15.67,22.4-28.65,38.28-37.43c0.05-0.04,0.11-0.06,0.16-0.09c14.2-7.82,30.5-12.3,47.8-12.35c0.07,0,0.15-0.01,0.22-0.01
					h0.15c18.83,0,36.46,5.23,51.52,14.3c14.42,8.68,26.48,20.89,34.99,35.43c0.03,0.05,0.06,0.1,0.09,0.15
					c0.03,0.04,0.06,0.1,0.09,0.15c0.01,0.02,0.02,0.04,0.04,0.06c8.54,14.74,13.44,31.85,13.44,50.07c0,0.6,0,1.21-0.02,1.81v0.18
					h0.02c-0.02,0.82-0.03,1.65-0.03,2.48c0,19.6,5.06,38.42,14.57,54.96c0.02,0.05,0.06,0.1,0.09,0.16
					c0.03,0.06,0.07,0.13,0.11,0.19c0.01,0.02,0.02,0.04,0.04,0.06c4.79,8.27,10.69,15.97,17.62,22.91
					c6.26,6.25,13.12,11.65,20.46,16.17l5.49-9.08C690.28,356.3,678.42,344.14,670.07,329.72z"/>
			</g>
		</g>
		<g id="White" display="none">
			<g display="inline">
				<path fill="#FFFFFF" d="M678.96,324.05c0.03,0.05,0.06,0.11,0.09,0.16c0.04,0.06,0.07,0.12,0.11,0.19
					c0.01,0.02,0.02,0.04,0.04,0.07c7.48,12.89,18.06,23.75,30.73,31.56l5.47-9.02c-11.16-6.89-20.48-16.46-27.07-27.81
					c-0.01-0.03-0.03-0.05-0.04-0.07c-0.04-0.06-0.07-0.12-0.1-0.19c-0.03-0.05-0.06-0.11-0.09-0.16
					c-6.6-11.54-10.38-24.9-10.38-39.12c0-0.6,0.02-1.21,0.03-1.81c0-0.06,0-0.12,0-0.18h-0.03c0.02-0.82,0.03-1.65,0.03-2.48
					c0-23.52-6.13-46.1-17.61-65.92c-0.02-0.02-0.03-0.04-0.04-0.07c-0.03-0.05-0.05-0.1-0.09-0.15c-0.03-0.05-0.06-0.1-0.09-0.16
					c-5.67-9.71-12.61-18.75-20.77-26.9c-7.69-7.69-16.16-14.31-25.23-19.79c-20.31-12.26-43.63-18.82-67.96-18.82
					c-0.05,0-0.1,0.01-0.15,0.01c-0.07,0-0.15,0-0.22,0c-22.41,0.06-43.96,5.69-63.06,16.21c-0.06,0.03-0.11,0.06-0.16,0.08
					c-10.74,5.93-20.7,13.4-29.61,22.31c-3.82,3.82-7.37,7.83-10.66,12.02c-4.14-5.76-8.79-11.23-13.9-16.35
					c-7.69-7.69-16.16-14.31-25.24-19.79c-20.3-12.26-43.63-18.81-67.96-18.81c-0.04,0-0.1,0-0.15,0c-0.06,0-0.13,0-0.21,0
					c-22.41,0.06-43.96,5.68-63.06,16.21c-0.06,0.03-0.11,0.06-0.16,0.08c-10.73,5.93-20.69,13.4-29.61,22.31
					c-8.2,8.2-15.18,17.29-20.86,27.06c-0.03,0.06-0.06,0.1-0.09,0.16c-0.01,0.02-0.02,0.04-0.03,0.06
					c-0.02,0.02-0.03,0.04-0.04,0.06c-10.96,18.93-17.02,40.36-17.54,62.74c0,0.06-0.01,0.12-0.01,0.18
					c-0.01,0.98-0.03,1.96-0.03,2.93c0,23.38,6.05,45.82,17.41,65.55c0.02,0.05,0.06,0.11,0.08,0.15c0.03,0.05,0.06,0.1,0.09,0.15
					c0.01,0.02,0.02,0.05,0.04,0.07c5.7,9.84,12.72,19.01,20.98,27.27c7.48,7.48,15.7,13.94,24.5,19.34
					c20.37,12.49,43.83,19.2,68.33,19.26c0.07,0.01,0.14,0.01,0.21,0.01c0.05,0,0.11,0,0.15,0c22.53,0,44.19-5.62,63.39-16.19
					c0.05-0.03,0.1-0.06,0.16-0.09c10.74-5.93,20.72-13.4,29.64-22.33c3.82-3.82,7.37-7.83,10.64-12.01
					c4.15,5.76,8.79,11.23,13.92,16.35c7.48,7.48,15.7,13.94,24.5,19.34c20.38,12.49,43.84,19.2,68.33,19.26c0.07,0,0.15,0,0.22,0
					c0.05,0,0.09,0,0.15,0c22.52,0,44.18-5.62,63.38-16.19c0.06-0.03,0.11-0.05,0.16-0.09l-5.12-9.31c-0.05,0.03-0.1,0.06-0.16,0.09
					c-17.31,9.53-37.17,14.95-58.28,14.95c-0.05,0-0.1,0-0.15,0c-0.07,0-0.15-0.01-0.22-0.01c-23-0.06-44.51-6.56-62.83-17.8
					c-14.86-9.11-27.61-21.32-37.35-35.74c1.3-1.99,2.55-4.01,3.74-6.05c0.01-0.02,0.02-0.04,0.03-0.06
					c0.02-0.02,0.03-0.04,0.03-0.06c0.03-0.05,0.06-0.1,0.1-0.16c0.71-1.23,1.41-2.48,2.08-3.74c4.54,7.42,9.98,14.35,16.28,20.65
					c6.27,6.27,13.15,11.69,20.53,16.21c17.11,10.51,36.81,16.15,57.39,16.22c0.07,0,0.15,0,0.22,0c0.05,0,0.09,0,0.15,0
					c18.92,0,37.1-4.72,53.23-13.59c0.06-0.03,0.1-0.06,0.16-0.09l-5.11-9.29c-0.05,0.04-0.1,0.06-0.15,0.09
					c-14.29,7.86-30.69,12.34-48.12,12.34c-0.05,0-0.1,0-0.15,0c-0.07,0-0.15,0-0.22,0c-19-0.07-36.77-5.46-51.9-14.75
					c-14.22-8.72-26.09-20.89-34.46-35.34c-0.01-0.02-0.02-0.05-0.03-0.07c-0.04-0.05-0.06-0.1-0.09-0.15
					c-0.03-0.05-0.06-0.1-0.09-0.15c-0.72-1.26-1.41-2.54-2.09-3.83c1.96-4.76,3.65-9.64,5.03-14.62c1.71,4.58,3.78,8.98,6.19,13.17
					c0.03,0.05,0.06,0.1,0.09,0.16c0.02,0.05,0.05,0.1,0.09,0.15c0.01,0.02,0.02,0.05,0.04,0.07c7.48,12.91,18.1,23.79,30.79,31.6
					c13.53,8.32,29.44,13.15,46.44,13.22c0.07,0,0.15,0,0.22,0c0.04,0,0.09,0,0.15,0c15.59,0,30.26-4.01,43.04-11.04
					c0.05-0.03,0.11-0.06,0.16-0.09l-5.07-9.24c-0.05,0.03-0.11,0.06-0.16,0.09c-11.28,6.2-24.22,9.73-37.97,9.73
					c-0.05,0-0.1,0-0.15,0c-0.07,0-0.15,0-0.22,0c-15-0.07-29.03-4.34-40.97-11.7c-11.19-6.89-20.54-16.47-27.14-27.85
					c0-0.02-0.02-0.04-0.03-0.06c-0.03-0.05-0.05-0.1-0.09-0.14c-0.03-0.06-0.05-0.11-0.08-0.16c-6.62-11.56-10.4-24.92-10.4-39.16
					c0-0.61,0.01-1.21,0.03-1.81c0-0.06,0-0.11,0-0.18c0.35-13.61,4.13-26.39,10.54-37.47c0.01-0.02,0.03-0.04,0.03-0.06
					c0.02-0.02,0.03-0.04,0.04-0.06c0.02-0.05,0.06-0.1,0.09-0.15c7.21-12.35,17.66-22.57,30.18-29.5c0.05-0.03,0.1-0.06,0.15-0.09
					c11.19-6.16,24.02-9.69,37.65-9.75c0.07,0,0.15,0,0.22,0c0.05,0,0.09,0,0.15,0c14.83,0,28.72,4.11,40.59,11.25
					c11.4,6.85,20.93,16.47,27.66,27.94c0.03,0.06,0.06,0.11,0.09,0.16c0.03,0.05,0.06,0.1,0.08,0.15c0.02,0.02,0.03,0.04,0.04,0.06
					c6.73,11.64,10.61,25.14,10.61,39.52c0,0.46-0.02,0.91-0.02,1.36c0,0.06,0,0.12,0,0.18h0.02c-0.02,0.98-0.04,1.96-0.04,2.93
					c0,23.36,6.05,45.79,17.39,65.51c0.03,0.05,0.06,0.1,0.08,0.16c0.04,0.06,0.07,0.13,0.11,0.19c0.02,0.02,0.03,0.04,0.04,0.06
					c5.7,9.85,12.72,19.02,20.98,27.28c7.46,7.46,15.67,13.91,24.44,19.29l5.5-9.08c-17.2-10.56-31.58-25.3-41.73-42.79
					c-0.01-0.02-0.02-0.04-0.04-0.06c-0.03-0.06-0.06-0.13-0.11-0.19c-0.03-0.06-0.06-0.11-0.08-0.16
					c-10.2-17.75-16.04-38.31-16.04-60.21c0-0.9,0.01-1.81,0.03-2.71c0-0.06,0-0.12,0-0.18h-0.02c0.01-0.53,0.01-1.06,0.01-1.58
					c0-16.31-4.38-31.61-12.03-44.79c-0.01-0.02-0.02-0.05-0.04-0.07c-0.02-0.05-0.05-0.09-0.08-0.15c-0.04-0.05-0.07-0.1-0.1-0.15
					c-7.61-13-18.41-23.92-31.32-31.69c-13.46-8.1-29.22-12.77-46.06-12.77c-0.05,0-0.1,0-0.15,0c-0.07,0-0.15,0-0.22,0
					c-15.47,0.06-30.03,4.06-42.72,11.05c-0.05,0.03-0.1,0.06-0.16,0.08c-14.2,7.86-26.06,19.46-34.22,33.46
					c-0.04,0.05-0.06,0.1-0.09,0.16c-0.01,0.02-0.02,0.04-0.03,0.06c-0.02,0.02-0.03,0.04-0.04,0.06c-1.88,3.24-3.54,6.6-5.01,10.08
					c-4.22,10.02-6.67,20.96-6.96,32.44c0,0.05-0.01,0.09-0.01,0.13h-0.11c-0.01,0.06-0.01,0.12-0.01,0.18
					c-0.23,11.59-2.09,22.79-5.37,33.38c-1.56,5.03-3.44,9.91-5.6,14.64c-1.56,3.4-3.29,6.72-5.15,9.95
					c-0.03,0.05-0.06,0.11-0.09,0.16c-0.01,0.02-0.02,0.04-0.03,0.05c-0.01,0.02-0.03,0.04-0.04,0.07c-0.23,0.4-0.46,0.79-0.7,1.19
					c-1.14,1.92-2.34,3.8-3.58,5.65c-0.08,0.11-0.15,0.22-0.23,0.34c-0.07,0.11-0.15,0.21-0.22,0.32c-0.03,0.05-0.07,0.1-0.1,0.14
					c-0.8,1.17-1.62,2.31-2.45,3.44c-10.41,14.13-23.79,25.92-39.22,34.45c-0.06,0.03-0.11,0.06-0.16,0.09
					c-17.3,9.52-37.17,14.95-58.28,14.95c-0.04,0-0.1,0-0.15,0c-0.06,0-0.13,0-0.21,0c-23-0.07-44.51-6.57-62.83-17.79
					c-17.24-10.57-31.64-25.33-41.79-42.84c-0.01-0.03-0.03-0.04-0.04-0.07c-0.02-0.05-0.05-0.1-0.08-0.15
					c-0.03-0.05-0.06-0.11-0.09-0.16c-10.21-17.76-16.06-38.33-16.06-60.24c0-0.9,0.01-1.81,0.03-2.71c0-0.06,0.01-0.12,0.01-0.18
					c0.49-20.95,6.32-40.61,16.19-57.66c0.02-0.02,0.03-0.04,0.04-0.07c0.01-0.02,0.03-0.03,0.03-0.05c0.03-0.05,0.06-0.1,0.09-0.16
					c11.06-18.99,27.13-34.72,46.38-45.37c0.05-0.02,0.11-0.06,0.15-0.08c17.22-9.48,36.97-14.91,57.96-14.97c0.07,0,0.14,0,0.21,0
					c0.05,0,0.11,0,0.15,0c22.83,0,44.2,6.34,62.45,17.36c15.18,9.16,28.19,21.55,38.09,36.2c-1.27,1.94-2.49,3.9-3.65,5.9
					c-0.03,0.05-0.06,0.1-0.09,0.16c-0.01,0.02-0.02,0.04-0.03,0.06c-0.01,0.02-0.03,0.04-0.04,0.06c-0.74,1.29-1.47,2.59-2.16,3.9
					c-4.54-7.42-9.98-14.35-16.29-20.66c-6.47-6.47-13.61-12.05-21.26-16.66c-17.04-10.28-36.6-15.76-57.03-15.76
					c-0.04,0-0.1,0-0.15,0c-0.06,0-0.13,0-0.21,0c-18.8,0.06-36.87,4.78-52.91,13.6c-0.05,0.03-0.11,0.06-0.16,0.08
					c-9.01,4.98-17.38,11.25-24.85,18.73c-6.88,6.88-12.73,14.51-17.5,22.7c-0.03,0.05-0.07,0.1-0.09,0.15
					c-0.01,0.02-0.02,0.04-0.03,0.06c-0.02,0.02-0.03,0.04-0.04,0.07c-9.19,15.88-14.29,33.87-14.72,52.64
					c0,0.06-0.01,0.12-0.01,0.18c-0.02,0.82-0.03,1.65-0.03,2.48c0,19.61,5.07,38.44,14.58,55.01c0.03,0.05,0.06,0.1,0.09,0.15
					c0.03,0.05,0.06,0.1,0.09,0.15c0.01,0.02,0.02,0.04,0.04,0.06c4.79,8.27,10.68,15.97,17.62,22.91
					c6.27,6.27,13.15,11.69,20.52,16.21c17.12,10.51,36.82,16.15,57.4,16.22c0.07,0,0.14,0,0.21,0c0.05,0,0.11,0,0.15,0
					c18.92,0,37.1-4.72,53.23-13.58c0.05-0.03,0.11-0.06,0.16-0.08c9.02-4.99,17.4-11.26,24.89-18.76
					c5.21-5.2,9.83-10.84,13.83-16.82c1.32-1.97,2.57-3.98,3.76-6.03c0.01-0.02,0.02-0.04,0.04-0.07c0.01-0.02,0.02-0.04,0.03-0.06
					c0.03-0.05,0.06-0.1,0.08-0.15c0.93-1.63,1.83-3.27,2.68-4.95c2.36-4.62,4.39-9.41,6.07-14.33c3.66-10.71,5.68-22.05,5.9-33.67
					c0.01-0.04,0.01-0.09,0.01-0.14h0.12c0-0.05,0-0.11,0-0.18c0.28-11.56,2.52-22.64,6.42-32.91c1.86-4.9,4.09-9.63,6.66-14.13
					c0.1-0.17,0.2-0.35,0.3-0.52c0.01-0.02,0.02-0.05,0.03-0.07c0.01-0.02,0.02-0.04,0.04-0.05c0.03-0.05,0.06-0.11,0.09-0.16
					c9.14-15.67,22.4-28.65,38.28-37.43c0.05-0.04,0.11-0.06,0.16-0.09c14.2-7.82,30.5-12.3,47.8-12.35c0.07,0,0.15-0.01,0.22-0.01
					c0.04,0,0.09,0,0.15,0c18.83,0,36.46,5.23,51.52,14.3c14.42,8.68,26.48,20.89,34.99,35.43c0.03,0.05,0.06,0.1,0.09,0.15
					c0.03,0.04,0.06,0.1,0.09,0.15c0.01,0.02,0.02,0.04,0.04,0.06c8.54,14.74,13.44,31.85,13.44,50.07c0,0.6,0,1.21-0.02,1.81
					c0,0.06,0,0.12,0,0.18h0.02c-0.02,0.82-0.03,1.65-0.03,2.48c0,19.6,5.06,38.42,14.57,54.96c0.02,0.05,0.06,0.1,0.09,0.16
					c0.03,0.06,0.07,0.13,0.11,0.19c0.01,0.02,0.02,0.04,0.04,0.06c4.79,8.27,10.69,15.97,17.62,22.91
					c6.26,6.25,13.12,11.65,20.46,16.17l5.49-9.08c-14.17-8.72-26.03-20.88-34.38-35.3c-0.02-0.02-0.03-0.04-0.05-0.06
					c-0.03-0.06-0.06-0.13-0.1-0.19c-0.03-0.05-0.06-0.1-0.1-0.15c-8.4-14.65-13.21-31.61-13.21-49.66c0-0.75,0.02-1.51,0.03-2.26
					c0-0.06,0.01-0.12,0.01-0.18h-0.02c0.01-0.67,0.02-1.35,0.02-2.03c0-19.76-5.15-38.72-14.79-55.37
					c-0.01-0.02-0.03-0.05-0.04-0.07c-0.02-0.05-0.05-0.1-0.08-0.15c-0.03-0.05-0.06-0.1-0.09-0.15
					c-4.75-8.13-10.58-15.71-17.41-22.54c-6.47-6.47-13.61-12.04-21.26-16.66c-17.04-10.28-36.61-15.77-57.02-15.77
					c-0.05,0-0.1,0-0.15,0c-0.07,0-0.15,0-0.22,0c-18.8,0.06-36.88,4.78-52.91,13.6c-0.06,0.03-0.1,0.06-0.16,0.08
					c-9.01,4.98-17.37,11.25-24.85,18.73c-5.21,5.21-9.82,10.84-13.83,16.82c-1.29,1.92-2.52,3.88-3.68,5.88
					c-0.03,0.06-0.06,0.11-0.08,0.16c-0.02,0.02-0.03,0.04-0.04,0.06c-0.02,0.02-0.02,0.04-0.03,0.06
					c-0.97,1.67-1.89,3.37-2.77,5.09c-2.36,4.63-4.39,9.41-6.06,14.33c-3.61,10.58-5.63,21.76-5.89,33.22
					c-0.01,0.05-0.01,0.09-0.01,0.14l-0.11,0c0,0.06,0,0.12,0,0.18c-0.23,11.72-2.49,22.95-6.43,33.36
					c-1.86,4.91-4.09,9.63-6.67,14.13c-0.07,0.13-0.14,0.25-0.21,0.38c-0.03,0.05-0.06,0.1-0.09,0.15
					c-0.02,0.01-0.02,0.03-0.04,0.06c-0.01,0.02-0.03,0.04-0.04,0.06c-9.14,15.75-22.45,28.79-38.4,37.6
					c-0.05,0.03-0.11,0.06-0.16,0.09c-14.29,7.86-30.69,12.34-48.13,12.34c-0.04,0-0.1,0-0.15,0c-0.06,0-0.13-0.01-0.21-0.01
					c-19-0.07-36.78-5.45-51.9-14.74c-14.21-8.73-26.09-20.9-34.46-35.34c-0.01-0.02-0.03-0.05-0.04-0.07
					c-0.03-0.05-0.06-0.09-0.09-0.14c-0.03-0.05-0.06-0.1-0.08-0.16c-8.42-14.66-13.23-31.63-13.23-49.71
					c0-0.75,0.02-1.51,0.03-2.27c0-0.05,0.01-0.12,0.01-0.17c0.41-17.29,5.23-33.5,13.37-47.56c0.01-0.02,0.02-0.04,0.04-0.06
					c0.01-0.02,0.02-0.04,0.03-0.06c0.03-0.05,0.06-0.1,0.09-0.16c9.13-15.67,22.4-28.64,38.28-37.43c0.06-0.03,0.11-0.06,0.17-0.09
					c14.2-7.82,30.49-12.3,47.8-12.36c0.07,0,0.14,0,0.21,0c0.05,0,0.11,0,0.15,0c18.84,0,36.46,5.22,51.53,14.3
					c14.41,8.69,26.48,20.89,34.98,35.43c0.03,0.05,0.06,0.1,0.09,0.15c0.04,0.05,0.06,0.1,0.09,0.15c0.01,0.02,0.03,0.04,0.04,0.07
					c0.8,1.38,1.57,2.77,2.3,4.2c-1.96,4.76-3.64,9.64-5.03,14.61c-1.76-4.71-3.91-9.24-6.4-13.54c-0.01-0.02-0.03-0.05-0.04-0.07
					c-0.03-0.05-0.06-0.1-0.08-0.14c-0.04-0.06-0.06-0.11-0.1-0.16c-7.62-12.99-18.41-23.92-31.31-31.69
					c-13.47-8.1-29.24-12.77-46.07-12.77c-0.04,0-0.1,0-0.15,0c-0.06,0-0.13,0.01-0.21,0.01c-15.48,0.06-30.03,4.06-42.73,11.05
					c-0.04,0.03-0.1,0.05-0.15,0.09c-14.2,7.86-26.06,19.46-34.23,33.46c-0.03,0.05-0.06,0.1-0.09,0.15
					c-0.01,0.03-0.02,0.04-0.04,0.06c-0.01,0.02-0.02,0.04-0.03,0.06c-7.28,12.58-11.58,27.07-11.96,42.52
					c0,0.07-0.01,0.12-0.01,0.19c-0.02,0.67-0.03,1.35-0.03,2.03c0,16.16,4.3,31.33,11.82,44.43c0.02,0.05,0.05,0.1,0.08,0.16
					c0.03,0.05,0.06,0.1,0.09,0.15c0.01,0.02,0.02,0.04,0.03,0.06c7.49,12.92,18.1,23.8,30.8,31.6
					c13.53,8.32,29.44,13.15,46.44,13.22c0.07,0,0.14,0,0.21,0c0.05,0,0.11,0,0.15,0c15.6,0,30.27-4.01,43.06-11.04
					c0.05-0.02,0.1-0.06,0.15-0.08c14.27-7.89,26.18-19.56,34.36-33.64c0.01-0.02,0.02-0.05,0.04-0.07
					c0.01-0.02,0.02-0.04,0.03-0.05c0.03-0.05,0.07-0.11,0.09-0.16c1.84-3.2,3.48-6.51,4.93-9.93c4.27-10.16,6.73-21.26,6.96-32.9
					c0-0.04,0-0.09,0-0.14l0.12,0c0-0.06,0-0.12,0-0.18c0.28-11.42,2.13-22.47,5.36-32.91c1.56-5.03,3.44-9.92,5.61-14.65
					c1.58-3.45,3.32-6.83,5.22-10.1c0.01-0.02,0.03-0.04,0.04-0.07c0.01-0.01,0.02-0.03,0.03-0.05c0.03-0.05,0.06-0.11,0.09-0.16
					c0.2-0.35,0.41-0.7,0.62-1.04c1.31-2.2,2.69-4.35,4.12-6.46c0.04-0.05,0.07-0.09,0.1-0.14c0.07-0.11,0.15-0.22,0.23-0.33
					c0.08-0.12,0.16-0.23,0.24-0.35c0.61-0.89,1.24-1.76,1.89-2.63c10.39-14.11,23.76-25.89,39.18-34.42
					c0.06-0.02,0.11-0.06,0.16-0.09c17.21-9.48,36.96-14.91,57.95-14.97c0.07,0,0.15-0.01,0.22-0.01c0.04,0,0.09,0,0.15,0
					c22.83,0,44.2,6.35,62.45,17.36c17.44,10.52,32.03,25.31,42.31,42.91c0.03,0.06,0.06,0.11,0.09,0.16
					c0.03,0.05,0.06,0.1,0.09,0.15c0.01,0.03,0.03,0.04,0.04,0.06c10.35,17.84,16.27,38.55,16.27,60.61c0,0.76,0,1.5-0.02,2.25
					c0,0.06,0,0.12,0,0.18h0.02c-0.02,0.68-0.03,1.36-0.03,2.04C667.16,295.8,671.46,310.95,678.96,324.05z M403.59,310.17
					c-0.03,0.05-0.06,0.1-0.09,0.16c-0.01,0.02-0.03,0.03-0.03,0.05c-0.01,0.02-0.03,0.05-0.04,0.07
					c-7.22,12.42-17.72,22.7-30.3,29.66c-0.05,0.04-0.1,0.06-0.16,0.09c-11.27,6.2-24.21,9.73-37.97,9.73c-0.04,0-0.1,0-0.15,0
					c-0.06,0-0.13-0.01-0.21-0.01c-15.01-0.07-29.04-4.34-40.97-11.69c-11.18-6.88-20.54-16.47-27.14-27.85
					c-0.01-0.02-0.02-0.04-0.03-0.06c-0.03-0.05-0.05-0.1-0.08-0.15c-0.03-0.05-0.06-0.11-0.08-0.16
					c-6.61-11.55-10.4-24.92-10.4-39.16c0-0.61,0.01-1.21,0.03-1.82c0-0.06,0-0.12,0-0.18c0.34-13.62,4.13-26.39,10.54-37.47
					c0.01-0.02,0.03-0.04,0.03-0.06c0.02-0.02,0.03-0.04,0.04-0.06c0.03-0.05,0.06-0.1,0.09-0.15c7.21-12.35,17.66-22.57,30.17-29.5
					c0.05-0.03,0.1-0.06,0.16-0.09c11.19-6.16,24.01-9.68,37.65-9.75c0.07,0,0.14-0.01,0.21-0.01c0.05,0,0.11,0,0.15,0
					c14.84,0,28.72,4.11,40.6,11.25c11.39,6.85,20.92,16.47,27.65,27.94c0.04,0.06,0.06,0.1,0.09,0.16
					c0.03,0.05,0.06,0.09,0.09,0.14c0.01,0.02,0.03,0.04,0.04,0.06c6.74,11.64,10.61,25.14,10.61,39.53c0,0.46-0.02,0.91-0.02,1.36
					c0,0.07,0,0.12,0,0.18C413.79,286.12,410.03,299,403.59,310.17z"/>
			</g>
			<g display="inline">
				<path fill="#FFFFFF" d="M201.14,452.36c8.96,0,16.46,2.99,22.5,8.97c6.04,5.98,9.06,13.34,9.06,22.08
					c0,8.66-3.01,16.01-9.04,22.04s-13.37,9.05-22.04,9.05c-8.77,0-16.18-3-22.22-9.01c-6.04-6.01-9.06-13.27-9.06-21.8
					c0-5.68,1.38-10.95,4.13-15.8c2.75-4.86,6.5-8.66,11.25-11.4C190.48,453.73,195.62,452.36,201.14,452.36z M201.41,458.11
					c-4.38,0-8.53,1.14-12.45,3.42c-3.92,2.28-6.98,5.36-9.19,9.22c-2.2,3.86-3.3,8.17-3.3,12.92c0,7.03,2.44,12.97,7.31,17.81
					c4.88,4.85,10.75,7.27,17.63,7.27c4.59,0,8.84-1.11,12.75-3.34c3.91-2.23,6.96-5.27,9.14-9.14c2.19-3.87,3.28-8.16,3.28-12.88
					c0-4.7-1.1-8.94-3.28-12.74c-2.19-3.79-5.27-6.83-9.25-9.12S205.86,458.11,201.41,458.11z"/>
				<path fill="#FFFFFF" d="M268.74,453.84l27.59,59.17h-6.39l-9.3-19.47h-25.49l-9.22,19.47h-6.6l27.95-59.17H268.74z
					 M267.99,466.41l-10.14,21.42h20.23L267.99,466.41z"/>
				<path fill="#FFFFFF" d="M322.19,501.99l5.03-3.02c3.54,6.51,7.63,9.77,12.27,9.77c1.98,0,3.85-0.46,5.59-1.38
					c1.74-0.93,3.07-2.17,3.98-3.72c0.91-1.56,1.37-3.21,1.37-4.95c0-1.99-0.67-3.93-2.01-5.83c-1.85-2.63-5.23-5.79-10.14-9.49
					c-4.93-3.73-8-6.42-9.21-8.09c-2.09-2.79-3.14-5.8-3.14-9.05c0-2.58,0.62-4.92,1.85-7.04c1.23-2.12,2.97-3.79,5.21-5.01
					c2.24-1.22,4.67-1.83,7.3-1.83c2.79,0,5.4,0.69,7.82,2.07c2.43,1.38,4.99,3.92,7.7,7.62l-4.83,3.66
					c-2.23-2.95-4.12-4.89-5.69-5.83c-1.57-0.94-3.28-1.41-5.13-1.41c-2.39,0-4.34,0.73-5.85,2.17c-1.52,1.45-2.27,3.23-2.27,5.35
					c0,1.29,0.27,2.53,0.8,3.74s1.52,2.52,2.94,3.94c0.78,0.75,3.32,2.72,7.64,5.91c5.12,3.78,8.63,7.15,10.54,10.1
					c1.9,2.95,2.86,5.91,2.86,8.89c0,4.29-1.63,8.02-4.89,11.18c-3.26,3.16-7.22,4.74-11.89,4.74c-3.59,0-6.85-0.96-9.77-2.87
					C327.35,509.7,324.66,506.49,322.19,501.99z"/>
				<path fill="#FFFFFF" d="M397.5,452.36c8.96,0,16.46,2.99,22.5,8.97c6.04,5.98,9.05,13.34,9.05,22.08
					c0,8.66-3.01,16.01-9.04,22.04s-13.37,9.05-22.04,9.05c-8.77,0-16.18-3-22.21-9.01c-6.04-6.01-9.06-13.27-9.06-21.8
					c0-5.68,1.38-10.95,4.13-15.8c2.75-4.86,6.5-8.66,11.25-11.4C386.84,453.73,391.98,452.36,397.5,452.36z M397.76,458.11
					c-4.38,0-8.53,1.14-12.45,3.42c-3.92,2.28-6.98,5.36-9.19,9.22c-2.2,3.86-3.3,8.17-3.3,12.92c0,7.03,2.44,12.97,7.31,17.81
					c4.88,4.85,10.75,7.27,17.63,7.27c4.59,0,8.84-1.11,12.75-3.34c3.91-2.23,6.96-5.27,9.14-9.14c2.19-3.87,3.28-8.16,3.28-12.88
					c0-4.7-1.1-8.94-3.28-12.74c-2.19-3.79-5.27-6.83-9.25-9.12S402.22,458.11,397.76,458.11z"/>
				<path fill="#FFFFFF" d="M440.92,453.84h5.91v53.45h22.76v5.71h-28.68V453.84z"/>
				<path fill="#FFFFFF" d="M479.17,453.84h5.91v35.72c0,4.24,0.08,6.88,0.24,7.92c0.29,2.33,0.98,4.28,2.05,5.85
					c1.07,1.57,2.72,2.89,4.95,3.95c2.23,1.05,4.46,1.59,6.72,1.59c1.96,0,3.84-0.41,5.63-1.25c1.8-0.83,3.3-1.98,4.5-3.46
					c1.21-1.48,2.09-3.26,2.66-5.35c0.4-1.5,0.6-4.58,0.6-9.25v-35.72h5.91v35.72c0,5.29-0.52,9.55-1.55,12.81
					c-1.03,3.26-3.1,6.09-6.19,8.51c-3.1,2.41-6.85,3.62-11.24,3.62c-4.77,0-8.86-1.14-12.27-3.42c-3.4-2.28-5.68-5.29-6.84-9.05
					c-0.72-2.3-1.09-6.46-1.09-12.47V453.84L479.17,453.84z"/>
				<path fill="#FFFFFF" d="M527.03,459.63v-5.79h32.42v5.79h-13.19v53.38h-6.03v-53.38H527.03z"/>
				<path fill="#FFFFFF" d="M567.13,453.84h5.91v59.17h-5.91V453.84z"/>
				<path fill="#FFFFFF" d="M614.78,452.36c8.96,0,16.46,2.99,22.5,8.97s9.06,13.34,9.06,22.08c0,8.66-3.01,16.01-9.04,22.04
					c-6.02,6.04-13.37,9.05-22.04,9.05c-8.77,0-16.18-3-22.22-9.01c-6.04-6.01-9.06-13.27-9.06-21.8c0-5.68,1.38-10.95,4.13-15.8
					c2.75-4.86,6.5-8.66,11.25-11.4C604.11,453.73,609.25,452.36,614.78,452.36z M615.04,458.11c-4.38,0-8.53,1.14-12.45,3.42
					c-3.92,2.28-6.98,5.36-9.19,9.22c-2.2,3.86-3.3,8.17-3.3,12.92c0,7.03,2.44,12.97,7.31,17.81c4.88,4.85,10.75,7.27,17.63,7.27
					c4.59,0,8.84-1.11,12.75-3.34c3.91-2.23,6.96-5.27,9.15-9.14c2.19-3.87,3.28-8.16,3.28-12.88c0-4.7-1.1-8.94-3.28-12.74
					c-2.19-3.79-5.27-6.83-9.25-9.12S619.5,458.11,615.04,458.11z"/>
				<path fill="#FFFFFF" d="M658.23,513.01v-59.17h1.29l39.38,45.35v-45.35h5.83v59.17h-1.33l-39.06-44.8v44.8H658.23L658.23,513.01
					z"/>
				<path fill="#FFFFFF" d="M713.01,501.99l5.03-3.02c3.54,6.51,7.63,9.77,12.27,9.77c1.98,0,3.85-0.46,5.59-1.38
					c1.74-0.93,3.07-2.17,3.98-3.72c0.91-1.56,1.37-3.21,1.37-4.95c0-1.99-0.67-3.93-2.01-5.83c-1.85-2.63-5.23-5.79-10.14-9.49
					c-4.93-3.73-8-6.42-9.21-8.09c-2.09-2.79-3.14-5.8-3.14-9.05c0-2.58,0.62-4.92,1.85-7.04c1.23-2.12,2.97-3.79,5.21-5.01
					s4.67-1.83,7.3-1.83c2.79,0,5.4,0.69,7.82,2.07c2.43,1.38,4.99,3.92,7.7,7.62l-4.83,3.66c-2.23-2.95-4.12-4.89-5.69-5.83
					c-1.57-0.94-3.28-1.41-5.13-1.41c-2.39,0-4.34,0.73-5.85,2.17c-1.52,1.45-2.27,3.23-2.27,5.35c0,1.29,0.27,2.53,0.8,3.74
					c0.54,1.21,1.52,2.52,2.94,3.94c0.78,0.75,3.33,2.72,7.64,5.91c5.12,3.78,8.64,7.15,10.54,10.1c1.9,2.95,2.86,5.91,2.86,8.89
					c0,4.29-1.63,8.02-4.89,11.18c-3.26,3.16-7.22,4.74-11.89,4.74c-3.59,0-6.85-0.96-9.77-2.87
					C718.18,509.7,715.48,506.49,713.01,501.99z"/>
			</g>
		</g>
		<g id="grid" display="none">
			
				<rect x="6.09" y="2.88" display="inline" fill="none" stroke="#4E4E4E" stroke-width="0.5" stroke-miterlimit="10" stroke-dasharray="2" width="1053.87" height="135.45"/>
			
				<rect x="67.77" y="-187.6" display="inline" fill="none" stroke="#BBBDBF" stroke-width="0.5" stroke-miterlimit="10" stroke-dasharray="2" width="135.45" height="1053.87"/>
			
				<rect x="715.39" y="-187.6" display="inline" fill="none" stroke="#BBBDBF" stroke-width="0.5" stroke-miterlimit="10" stroke-dasharray="2" width="135.45" height="1053.87"/>
			
				<rect x="6.09" y="513.98" display="inline" fill="none" stroke="#4E4E4E" stroke-width="0.5" stroke-miterlimit="10" stroke-dasharray="2" width="1053.87" height="135.45"/>
			
				<polyline display="inline" fill="none" stroke="#BBBDBF" stroke-width="0.5" stroke-miterlimit="10" stroke-dasharray="2" points="
				32.91,469.59 32.91,401.87 880.69,401.87 880.69,469.59 			"/>
			
				<polyline display="inline" fill="none" stroke="#BBBDBF" stroke-width="0.5" stroke-miterlimit="10" stroke-dasharray="2" points="
				32.91,503.45 32.91,435.73 880.69,435.73 880.69,503.45 			"/>
			
				<polyline display="inline" fill="none" stroke="#BBBDBF" stroke-width="0.5" stroke-miterlimit="10" stroke-dasharray="2" points="
				32.91,521.29 32.91,453.56 880.69,453.56 880.69,521.29 			"/>
			
				<polyline display="inline" fill="none" stroke="#4E4E4E" stroke-width="0.5" stroke-miterlimit="10" stroke-dasharray="2" points="
				238.07,830.83 170.35,830.83 170.35,-16.94 238.07,-16.94 			"/>
			
				<polyline display="inline" fill="none" stroke="#BBBDBF" stroke-width="0.5" stroke-miterlimit="10" stroke-dasharray="2" points="
				135.49,-16.94 203.21,-16.94 203.21,830.83 135.49,830.83 			"/>
			
				<polyline display="inline" fill="none" stroke="#BBBDBF" stroke-width="0.5" stroke-miterlimit="10" stroke-dasharray="2" points="
				783.11,830.83 715.39,830.83 715.39,-16.94 783.11,-16.94 			"/>
			
				<polyline display="inline" fill="none" stroke="#4E4E4E" stroke-width="0.5" stroke-miterlimit="10" stroke-dasharray="2" points="
				815.98,830.83 748.25,830.83 748.25,-16.94 815.98,-16.94 			"/>
		</g>
		<g id="unit" display="none">
			<polyline display="inline" fill="none" stroke="#BBBDBF" stroke-miterlimit="10" stroke-dasharray="1" points="170.65,485.41 
				170.65,528.41 296.58,528.41 296.58,485.41 			"/>
			<polyline display="inline" fill="none" stroke="#BBBDBF" stroke-miterlimit="10" stroke-dasharray="1" points="201.81,473.02 
				201.81,443 190.14,443 185.08,443 179.98,443 170.65,443 170.65,473.02 			"/>
			<polyline display="inline" fill="none" stroke="#BBBDBF" stroke-miterlimit="10" stroke-dasharray="1" points="296.58,474.51 
				296.58,443 233.61,443 233.61,473.02 			"/>
			<g display="inline">
				<path fill="#BBBDBF" d="M222.26,544.54l4.01-5.72l-3.84-5.39h3.59l1.97,3.05l2.07-3.05h3.45l-3.77,5.26l4.11,5.85h-3.61
					l-2.26-3.44l-2.28,3.44L222.26,544.54L222.26,544.54z"/>
			</g>
			<g display="inline">
				<path fill="#BBBDBF" d="M189.44,433.65l4.01-5.72l-3.84-5.39h3.59l1.97,3.05l2.07-3.05h3.45l-3.77,5.26l4.11,5.85h-3.61
					l-2.26-3.44l-2.28,3.44L189.44,433.65L189.44,433.65z"/>
			</g>
			<g display="inline">
				<path fill="#BBBDBF" d="M269.87,433.65l4.01-5.72l-3.84-5.39h3.59l1.97,3.05l2.07-3.05h3.45l-3.77,5.26l4.11,5.85h-3.61
					l-2.26-3.44l-2.28,3.44L269.87,433.65L269.87,433.65z"/>
			</g>
			<g display="inline">
				<path fill="#BBBDBF" d="M263.24,418.2h1.69v8.61h-0.85v-7.76h-1.35L263.24,418.2z"/>
				<path fill="#BBBDBF" d="M261.94,432.87h-0.82c0.02-0.85,0.31-1.54,0.85-2.09c0.54-0.54,1.22-0.82,2.02-0.82
					c0.79,0,1.43,0.26,1.92,0.77c0.49,0.51,0.73,1.12,0.73,1.81c0,0.49-0.12,0.95-0.35,1.37c-0.23,0.43-0.69,1.01-1.36,1.73
					l-2.14,2.31h3.97v0.83h-5.84l3.29-3.55c0.67-0.71,1.1-1.24,1.3-1.59s0.3-0.71,0.3-1.09c0-0.48-0.18-0.9-0.54-1.25
					c-0.36-0.35-0.8-0.52-1.32-0.52c-0.55,0-1.01,0.18-1.37,0.55C262.2,431.7,261.99,432.21,261.94,432.87z"/>
				<rect x="260.32" y="427.8" fill="#BBBDBF" width="8.18" height="0.88"/>
			</g>
			<g display="inline">
				<path fill="#BBBDBF" d="M182.28,418.2h1.69v8.61h-0.85v-7.76h-1.35L182.28,418.2z"/>
				<rect x="179.35" y="427.8" fill="#BBBDBF" width="8.18" height="0.88"/>
				<path fill="#BBBDBF" d="M183.57,429.87h0.18v6.06h1.05v0.83h-1.05v2.02h-0.86v-2.02h-4.16L183.57,429.87z M182.89,435.94v-3.65
					l-2.58,3.65H182.89z"/>
			</g>
		</g>
	</g>
</g>
<g id="Layer_2">
</g>
</svg>
